<?xml version="1.0" encoding="utf-8"?>
<!-- Generator: Adobe Illustrator 27.5.0, SVG Export Plug-In . SVG Version: 6.00 Build 0)  -->
<svg version="1.1" id="Layer_1" xmlns="http://www.w3.org/2000/svg" xmlns:xlink="http://www.w3.org/1999/xlink" x="0px" y="0px"
	 viewBox="0 0 646.74 102.05" style="enable-background:new 0 0 646.74 102.05;" xml:space="preserve">
<style type="text/css">
	.st0{fill:#565656;}
</style>
<g>
	<path d="M638.44,29c-2.83,0-5.67,0-8.5,0C632.77,29,635.6,29,638.44,29z"/>
	<path class="st0" d="M5.3,98.24c0.67-1.11,1.32-1.75,2.47-2c3.71-0.83,7.37-1.88,11.08-2.69c3.77-0.82,7.57-1.47,11.36-2.17
		c3.61-0.66,7.22-1.33,10.84-1.92c2.56-0.42,5.15-0.69,7.72-1.1c1.26-0.2,2.48-0.62,3.73-0.82c2.81-0.45,5.63-0.76,8.43-1.23
		c2.86-0.48,5.68-1.15,8.54-1.6c3.36-0.54,6.75-0.91,10.12-1.39c1.77-0.25,3.52-0.63,5.28-0.89c6.72-1,13.43-1.98,20.16-2.94
		c7.36-1.05,14.73-2.1,22.1-3.09c7.61-1.03,15.23-2.01,22.85-2.99c3.25-0.41,6.52-0.72,9.77-1.13c4.61-0.58,9.21-1.23,13.82-1.8
		c6.1-0.75,12.22-1.44,18.32-2.18c4.91-0.6,9.81-1.27,14.72-1.84c6.36-0.75,12.72-1.41,19.08-2.16c4.13-0.49,8.24-1.1,12.37-1.58
		c4.38-0.51,8.77-0.91,13.15-1.4c4.46-0.5,8.91-1.09,13.37-1.58c4.63-0.51,9.26-0.93,13.89-1.43c3.8-0.41,7.59-0.92,11.4-1.32
		c5.37-0.58,10.76-1.09,16.13-1.65c4.05-0.42,8.1-0.89,12.15-1.32c5.38-0.56,10.76-1.11,16.14-1.66c4.43-0.45,8.85-0.87,13.28-1.32
		c4.8-0.48,9.6-0.97,14.4-1.45c5.83-0.58,11.67-1.18,17.51-1.71c6.05-0.55,12.11-1.01,18.16-1.56c4.76-0.43,9.52-0.93,14.28-1.38
		c2.28-0.22,4.56-0.38,6.84-0.57c6.59-0.57,13.17-1.18,19.76-1.72c5.72-0.47,11.45-0.85,17.17-1.33c5.39-0.45,10.77-0.98,16.15-1.43
		c3.61-0.3,7.22-0.54,10.83-0.81c8.18-0.6,16.35-1.19,24.53-1.78c9.25-0.67,18.51-1.32,27.77-1.98c7.68-0.55,15.35-1.15,23.03-1.67
		c7.1-0.48,14.21-0.85,21.31-1.32c6.69-0.44,13.36-0.98,20.05-1.43c3.11-0.21,6.23-0.37,9.35-0.47c5.12-0.16,10.24-0.29,15.36-0.37
		c4.45-0.07,8.91-0.06,13.36-0.06c1.44,0,2.89,0.04,4.45,1.16c-0.96,0.54-1.67,1.18-2.48,1.36c-3.36,0.74-6.73,1.52-10.14,1.92
		c-3.04,0.36-6.23,0.76-9.18,0.2c-5.74-1.09-11.37-0.21-17.04,0.02c-6.82,0.27-13.64,0.68-20.45,1.11
		c-6.69,0.42-13.37,0.94-20.06,1.4c-3.07,0.21-6.15,0.35-9.23,0.56c-6.81,0.47-13.62,0.98-20.43,1.46c-4.11,0.29-8.23,0.5-12.34,0.8
		c-9.18,0.66-18.35,1.34-27.53,2.02c-7.85,0.58-15.69,1.15-23.53,1.79c-6.89,0.56-13.76,1.22-20.65,1.8
		c-4.98,0.42-9.96,0.74-14.94,1.17c-4.85,0.42-9.69,0.95-14.53,1.39c-3.44,0.31-6.89,0.52-10.33,0.82
		c-6.55,0.58-13.09,1.17-19.63,1.8c-6,0.58-12,1.21-18.01,1.8c-4.84,0.48-9.69,0.91-14.53,1.39c-6.66,0.66-13.33,1.33-19.99,2
		c-6.5,0.66-12.99,1.32-19.49,1.99c-6.33,0.66-12.66,1.34-18.99,1.99c-5.96,0.61-11.92,1.16-17.87,1.81
		c-5.13,0.56-10.24,1.26-15.36,1.83c-6.82,0.76-13.65,1.43-20.47,2.18c-4.01,0.44-8,0.99-12,1.46c-5.08,0.59-10.17,1.14-15.25,1.74
		c-7.39,0.87-14.77,1.77-22.16,2.65c-6.65,0.79-13.29,1.57-19.94,2.36c-4.95,0.59-9.9,1.15-14.84,1.79
		c-3.37,0.44-6.73,1.01-10.1,1.47c-4.36,0.6-8.74,1.13-13.1,1.72c-6.59,0.89-13.17,1.82-19.76,2.72c-2.92,0.4-5.84,0.74-8.7,1.1
		c-0.09,0.15-0.17,0.22-0.17,0.29c-0.26,2.62-0.45,2.98-3.18,3.39c-5.55,0.84-11.12,1.5-16.67,2.27c-3.54,0.49-7.07,1.06-10.61,1.54
		c-3.86,0.52-7.74,0.94-11.6,1.48c-3.9,0.55-7.79,1.24-11.69,1.8c-5.51,0.78-11.03,1.46-16.53,2.24c-3.91,0.55-7.8,1.19-11.7,1.82
		c-5.5,0.89-11,1.75-16.59,1.61c-1.08-0.03-2.16-0.08-3.23-0.24C6.32,98.87,5.85,98.5,5.3,98.24z"/>
</g>
</svg>
